<svg width="182" height="19" viewBox="0 0 182 19" fill="none" xmlns="http://www.w3.org/2000/svg">
<path d="M173.235 18H168.075V14.76H173.187C174.275 14.76 175.147 14.632 175.803 14.376C176.459 14.104 176.939 13.624 177.243 12.936C177.547 12.232 177.699 11.24 177.699 9.96C177.699 8.68 177.547 7.696 177.243 7.008C176.939 6.304 176.459 5.824 175.803 5.568C175.147 5.296 174.275 5.16 173.187 5.16H168.075V1.92H173.235C174.963 1.92 176.443 2.24 177.675 2.88C178.923 3.52 179.883 4.44 180.555 5.64C181.227 6.84 181.563 8.28 181.563 9.96C181.563 11.64 181.227 13.08 180.555 14.28C179.883 15.48 178.923 16.4 177.675 17.04C176.443 17.68 174.963 18 173.235 18ZM170.691 18H167.091V1.92H170.691V18Z" fill="black"/>
<path d="M155.621 18H152.021V1.92H159.413C160.693 1.92 161.773 2.112 162.653 2.496C163.549 2.88 164.229 3.44 164.693 4.176C165.157 4.896 165.389 5.776 165.389 6.816C165.389 7.68 165.245 8.432 164.957 9.072C164.669 9.696 164.221 10.192 163.613 10.56C163.021 10.912 162.261 11.136 161.333 11.232V11.472C162.021 11.68 162.565 11.992 162.965 12.408C163.365 12.824 163.717 13.344 164.021 13.968L166.061 18H161.861L159.965 14.28C159.725 13.816 159.485 13.44 159.245 13.152C159.021 12.848 158.741 12.632 158.405 12.504C158.085 12.36 157.637 12.288 157.061 12.288H155.621V18ZM155.621 5.16V9.312H159.581C160.429 9.312 161.013 9.16 161.333 8.856C161.653 8.552 161.813 8.008 161.813 7.224C161.813 6.456 161.653 5.92 161.333 5.616C161.013 5.312 160.429 5.16 159.581 5.16H155.621Z" fill="black"/>
<path d="M123.324 18.24C121.708 18.24 120.324 17.904 119.172 17.232C118.036 16.544 117.156 15.584 116.532 14.352C115.924 13.104 115.62 11.64 115.62 9.96C115.62 8.28 115.924 6.824 116.532 5.592C117.156 4.344 118.036 3.384 119.172 2.712C120.324 2.024 121.708 1.68 123.324 1.68C124.924 1.68 126.26 1.944 127.332 2.472C128.42 3 129.244 3.752 129.804 4.728C130.364 5.688 130.644 6.832 130.644 8.16V8.376H126.804V8.256C126.804 7.104 126.54 6.304 126.012 5.856C125.484 5.392 124.58 5.16 123.3 5.16C122.388 5.16 121.652 5.296 121.092 5.568C120.532 5.84 120.116 6.32 119.844 7.008C119.588 7.696 119.46 8.68 119.46 9.96C119.46 11.224 119.588 12.208 119.844 12.912C120.116 13.6 120.532 14.08 121.092 14.352C121.652 14.624 122.388 14.76 123.3 14.76C124.58 14.76 125.484 14.536 126.012 14.088C126.54 13.624 126.804 12.816 126.804 11.664V11.544H130.644V11.76C130.644 13.088 130.364 14.24 129.804 15.216C129.244 16.176 128.42 16.92 127.332 17.448C126.26 17.976 124.924 18.24 123.324 18.24Z" fill="black"/>
<path d="M105.54 18H101.94V1.92H105.54V18ZM114.204 18H102.949V14.76H114.204V18ZM113.844 11.52H102.949V8.304H113.844V11.52ZM114.204 5.16H102.949V1.92H114.204V5.16Z" fill="black"/>
<path d="M90.4702 18H86.8702V1.92H94.2622C95.5422 1.92 96.6222 2.112 97.5022 2.496C98.3982 2.88 99.0782 3.44 99.5422 4.176C100.006 4.896 100.238 5.776 100.238 6.816C100.238 7.68 100.094 8.432 99.8062 9.072C99.5182 9.696 99.0702 10.192 98.4622 10.56C97.8702 10.912 97.1102 11.136 96.1822 11.232V11.472C96.8702 11.68 97.4142 11.992 97.8142 12.408C98.2142 12.824 98.5662 13.344 98.8702 13.968L100.91 18H96.7102L94.8142 14.28C94.5742 13.816 94.3342 13.44 94.0942 13.152C93.8702 12.848 93.5902 12.632 93.2542 12.504C92.9342 12.36 92.4862 12.288 91.9102 12.288H90.4702V18ZM90.4702 5.16V9.312H94.4302C95.2782 9.312 95.8622 9.16 96.1822 8.856C96.5022 8.552 96.6622 8.008 96.6622 7.224C96.6622 6.456 96.5022 5.92 96.1822 5.616C95.8622 5.312 95.2782 5.16 94.4302 5.16H90.4702Z" fill="black"/>
<path d="M74.7646 12.504H71.5486L65.0926 1.92H69.1726L71.6926 6.144L73.0846 8.52H73.3246L74.6926 6.144L77.2126 1.92H81.2206L74.7646 12.504ZM74.9566 18H71.3566V10.176H74.9566V18Z" fill="black"/>
<path d="M60.0014 18H56.4014V1.92H60.0014V18ZM68.3054 18H57.4094V14.76H68.3054V18Z" fill="black"/>
<path d="M54.0718 18H50.4717V1.92H54.0718V18Z" fill="black"/>
<path d="M33.3061 18H29.7061V1.92H34.7701L37.5781 9.432L38.8741 13.56H39.1141L40.3861 9.432L43.0741 1.92H48.1381V18H44.5381V10.392L44.7301 7.296H44.4661L43.5301 10.44L41.1061 16.896H36.7381L34.3141 10.44L33.3541 7.296H33.1141L33.3061 10.392V18Z" fill="black"/>
<path d="M15.6123 18H11.8683L17.7963 1.92H23.0283L28.9563 18H25.0443L21.6603 8.712L20.4843 5.088H20.2443L19.0203 8.712L15.6123 18ZM25.8123 14.424H15.1563V11.208H25.8123V14.424Z" fill="black"/>
<path d="M3.72801 18H0.128006V1.92H3.72801V18ZM11.84 12.048H1.13601V8.832H11.84V12.048ZM12.2 5.16H1.13601V1.92H12.2V5.16Z" fill="black"/>
<circle cx="141.2" cy="9.5" r="9.5" fill="#ED1C00"/>
</svg>
